<svg width="20" height="20" viewBox="0 0 20 20" fill="none" xmlns="http://www.w3.org/2000/svg">
<path d="M8.09397 3.03371C8.57837 2.6209 8.82058 2.4145 9.07381 2.29346C9.65952 2.01351 10.3404 2.01351 10.9261 2.29346C11.1794 2.4145 11.4216 2.6209 11.906 3.03371C12.4047 3.45869 12.9115 3.67317 13.5782 3.72638C14.2127 3.77701 14.5299 3.80232 14.7945 3.8958C15.4067 4.11201 15.8881 4.59348 16.1043 5.2056C16.1978 5.47025 16.2231 5.78746 16.2738 6.42189C16.327 7.08867 16.5415 7.59546 16.9664 8.09415C17.3792 8.57856 17.5856 8.82076 17.7067 9.074C17.9866 9.65971 17.9866 10.3406 17.7067 10.9263C17.5856 11.1796 17.3792 11.4218 16.9664 11.9062C16.5326 12.4153 16.3259 12.9253 16.2738 13.5784C16.2231 14.2129 16.1978 14.5301 16.1043 14.7947C15.8881 15.4068 15.4067 15.8883 14.7945 16.1045C14.5299 16.198 14.2127 16.2233 13.5782 16.2739C12.9115 16.3272 12.4047 16.5416 11.906 16.9666C11.4216 17.3794 11.1794 17.5858 10.9261 17.7069C10.3404 17.9868 9.65953 17.9868 9.07381 17.7069C8.82058 17.5858 8.57837 17.3794 8.09397 16.9666C7.58486 16.5328 7.07484 16.3261 6.42171 16.2739C5.78728 16.2233 5.47006 16.198 5.20541 16.1045C4.5933 15.8883 4.11182 15.4068 3.89562 14.7947C3.80214 14.5301 3.77683 14.2129 3.7262 13.5784C3.67299 12.9117 3.45851 12.4049 3.03353 11.9062C2.62072 11.4218 2.41431 11.1796 2.29328 10.9263C2.01333 10.3406 2.01333 9.65971 2.29328 9.074C2.41431 8.82076 2.62072 8.57856 3.03353 8.09415C3.46739 7.58504 3.67408 7.07503 3.7262 6.42189C3.77683 5.78746 3.80214 5.47025 3.89562 5.2056C4.11182 4.59348 4.5933 4.11201 5.20541 3.8958C5.47006 3.80232 5.78728 3.77701 6.42171 3.72638C7.08849 3.67317 7.59528 3.45869 8.09397 3.03371Z" fill="white"/>
<path d="M7.22223 10.5278L8.47709 11.9619C8.82991 12.3651 9.4661 12.3354 9.7798 11.9011L12.7778 7.75" stroke="#1D1E22" stroke-width="1.5" stroke-linecap="round" stroke-linejoin="round"/>
</svg>
