<svg width="36" height="36" viewBox="0 0 36 36" fill="none" xmlns="http://www.w3.org/2000/svg">
<path d="M14.415 19.2601L9.07499 23.5051C8.91523 23.6101 8.73578 23.6816 8.54753 23.7151C8.35929 23.7486 8.1662 23.7435 7.97999 23.7001C7.97999 23.7001 1.34999 23.7001 2.35499 19.5001C2.43702 19.1523 2.6536 18.8511 2.95728 18.6628C3.26095 18.4744 3.62693 18.4141 3.97499 18.4951L8.02499 19.4551C8.02499 19.4551 12.705 14.9551 18 14.9551C23.295 14.9551 27.945 19.4551 27.945 19.4551L31.995 18.4951C32.3431 18.4141 32.709 18.4744 33.0127 18.6628C33.3164 18.8511 33.533 19.1523 33.615 19.5001C34.62 23.7151 27.99 23.7151 27.99 23.7151C27.8038 23.7585 27.6107 23.7636 27.4225 23.7301C27.2342 23.6966 27.0548 23.6251 26.895 23.5201L21.555 19.2751C21.5687 20.7419 21.7806 22.2001 22.185 23.6101C23.205 25.3501 25.965 26.0851 28.05 27.7201C30.42 29.5651 29.235 33.4951 24.39 31.2751C22.3323 30.3299 20.1936 29.5718 18 29.0101C15.7905 29.561 13.6364 30.3142 11.565 31.2601C6.71999 33.4801 5.56499 29.5501 7.90499 27.7051C9.98999 26.0701 12.75 25.3351 13.77 23.5951C14.1795 22.1858 14.3964 20.7275 14.415 19.2601Z" stroke="#C3FF44" stroke-width="2" stroke-linecap="round" stroke-linejoin="round"/>
<path d="M22.17 28.26C18.5009 28.6804 14.9244 29.6936 11.58 31.26" stroke="#C3FF44" stroke-width="2" stroke-linecap="round" stroke-linejoin="round"/>
<path d="M18 11.2349C19.9799 11.2349 21.585 9.62988 21.585 7.64994C21.585 5.67 19.9799 4.06494 18 4.06494C16.02 4.06494 14.415 5.67 14.415 7.64994C14.415 9.62988 16.02 11.2349 18 11.2349Z" stroke="#C3FF44" stroke-width="2" stroke-linecap="round" stroke-linejoin="round"/>
</svg>
