<svg width="36" height="36" viewBox="0 0 36 36" fill="none" xmlns="http://www.w3.org/2000/svg">
<path d="M27 10.1699C27.1093 10.1781 27.2127 10.2223 27.2941 10.2956C27.3756 10.3689 27.4304 10.4671 27.45 10.5749C28.17 13.5749 31.47 21.4499 30.675 25.5749C29.655 30.8849 27.675 32.7299 24.255 33.2099C20.835 33.6899 9.39 32.9999 9.39 32.9999C5.055 32.1899 2.25 29.5499 2.25 25.6049C2.24197 24.0159 2.76537 22.4698 3.73698 21.2124C4.70859 19.955 6.07265 19.0585 7.6123 18.6654C9.15196 18.2723 10.7788 18.4052 12.2343 19.0429C13.6898 19.6806 14.8903 20.7866 15.645 22.1849C16.6209 21.7076 17.6936 21.4612 18.78 21.4649C19.6031 21.4653 20.4201 21.6074 21.195 21.8849C20.6862 20.5068 20.4271 19.049 20.43 17.5799C20.4586 16.0932 20.2354 14.6123 19.77 13.1999C19.3711 11.9494 18.5351 10.8843 17.415 10.1999L18.825 10.3649C19.2 8.35494 20.61 6.23994 22.14 6.94494C23.67 7.64994 22.14 9.46494 22.14 9.46494C22.3671 9.84673 22.6335 10.2037 22.935 10.5299C24.405 10.4999 25.95 10.3049 27 10.1699Z" stroke="#C3FF44" stroke-width="2" stroke-linecap="round" stroke-linejoin="round"/>
<path d="M24 11.5349C23.6372 11.2453 23.3009 10.9241 22.995 10.5749M18.885 10.4099C18.8453 10.6128 18.8202 10.8184 18.81 11.0249" stroke="#C3FF44" stroke-width="2" stroke-linecap="round" stroke-linejoin="round"/>
<path d="M15.645 22.2151C14.8144 22.6706 14.1637 23.3954 13.8 24.2701" stroke="#C3FF44" stroke-width="2" stroke-linecap="round" stroke-linejoin="round"/>
<path d="M21.225 21.915C21.225 21.915 22.515 22.215 23.625 24.27" stroke="#C3FF44" stroke-width="2" stroke-linecap="round" stroke-linejoin="round"/>
<path d="M15.87 5.21993C15.87 4.68148 15.6571 4.16486 15.2778 3.78271C14.8985 3.40057 14.3834 3.18389 13.845 3.17993H12.105C11.8378 3.17992 11.5732 3.2328 11.3266 3.3355C11.0799 3.4382 10.856 3.5887 10.6678 3.77833C10.4795 3.96796 10.3307 4.19297 10.2298 4.44039C10.1289 4.68781 10.078 4.95275 10.08 5.21993V10.2599C10.078 10.5271 10.1289 10.7921 10.2298 11.0395C10.3307 11.2869 10.4795 11.5119 10.6678 11.7015C10.856 11.8912 11.0799 12.0417 11.3266 12.1444C11.5732 12.2471 11.8378 12.2999 12.105 12.2999H13.845C14.3834 12.296 14.8985 12.0793 15.2778 11.6972C15.6571 11.315 15.87 10.7984 15.87 10.2599V5.21993Z" stroke="#C3FF44" stroke-width="2" stroke-linecap="round" stroke-linejoin="round"/>
<path d="M27.945 10.26V5.21999C27.945 4.95082 27.9983 4.68432 28.1017 4.43583C28.2052 4.18735 28.3568 3.96179 28.5478 3.77216C28.7388 3.58253 28.9655 3.43258 29.2147 3.33095C29.464 3.22931 29.7308 3.17801 30 3.17999H31.74C32.2758 3.18787 32.787 3.40627 33.1631 3.78799C33.5393 4.16972 33.7501 4.6841 33.75 5.21999V10.26C33.75 10.7984 33.5371 11.3151 33.1578 11.6972C32.7785 12.0794 32.2634 12.296 31.725 12.3H29.76C29.2588 12.2444 28.796 12.0051 28.4609 11.6284C28.1257 11.2517 27.9419 10.7642 27.945 10.26Z" stroke="#C3FF44" stroke-width="2" stroke-linecap="round" stroke-linejoin="round"/>
<path d="M17.445 10.2451L15.87 10.0201V5.52011L16.5 5.37011L17.505 5.23511C17.895 6.22511 19.74 6.73511 22.005 6.73511C24.27 6.73511 26.055 6.19511 26.505 5.23511L27.135 5.32511L28.035 5.47511V9.97511L27 10.1701C26.01 10.3051 24.465 10.5001 23.025 10.5751C22.7223 10.2462 22.4511 9.88963 22.215 9.51011C22.215 9.51011 23.895 7.77011 22.215 6.99011C20.535 6.21011 19.29 8.40011 18.915 10.4101L17.445 10.2451Z" stroke="#C3FF44" stroke-width="2" stroke-linecap="round" stroke-linejoin="round"/>
<path d="M17.52 5.23502C17.4978 4.94545 17.4978 4.65459 17.52 4.36502C17.52 3.12002 19.545 2.52002 22.02 2.52002C24.495 2.52002 26.52 3.12002 26.52 4.36502C26.5173 4.65651 26.4923 4.94737 26.445 5.23502C26.04 6.22502 24.195 6.73502 21.945 6.73502C19.695 6.73502 17.91 6.22502 17.52 5.23502Z" stroke="#C3FF44" stroke-width="2" stroke-linecap="round" stroke-linejoin="round"/>
</svg>
