<svg width="36" height="36" viewBox="0 0 36 36" fill="none" xmlns="http://www.w3.org/2000/svg">
<path d="M25.26 18.6601L9.70499 17.3551C9.09908 17.3093 8.48982 17.3702 7.90499 17.5351C6.72116 17.8443 5.67362 18.5381 4.92696 19.5074C4.1803 20.4767 3.77684 21.6666 3.77999 22.8901V23.1151C3.77906 23.8745 3.93439 24.6259 4.23631 25.3226C4.53823 26.0194 4.98029 26.6465 5.53499 27.1651C5.8381 27.4444 6.16995 27.6908 6.52499 27.9001C7.28205 28.3355 8.12861 28.592 8.99999 28.6501C9.22443 28.6726 9.45055 28.6726 9.67499 28.6501L25.14 27.3751C26.2436 27.2955 27.2762 26.8012 28.0303 25.9915C28.7844 25.1817 29.2041 24.1166 29.205 23.0101V22.9201C29.2079 21.8428 28.8026 20.8044 28.0706 20.014C27.3386 19.2235 26.3343 18.7398 25.26 18.6601Z" stroke="#C3FF44" stroke-width="2" stroke-linecap="round" stroke-linejoin="round"/>
<path d="M8.99998 10.5L4.49998 10.575C4.15382 10.5801 3.8112 10.5047 3.49914 10.3548C3.18709 10.2049 2.91413 9.98455 2.70178 9.71112C2.48944 9.43768 2.34352 9.11866 2.27552 8.77921C2.20753 8.43975 2.21933 8.08914 2.30998 7.75502C2.44798 7.24893 2.77166 6.81345 3.21649 6.53544C3.66132 6.25742 4.1946 6.15729 4.70998 6.25502L8.99998 7.78501C9.28478 7.83725 9.54559 7.9787 9.74472 8.18892C9.94384 8.39913 10.071 8.66722 10.1077 8.95444C10.1444 9.24165 10.0889 9.5331 9.94908 9.78667C9.80928 10.0402 9.59246 10.2428 9.32998 10.365L9.08998 10.5C9.06046 10.5076 9.0295 10.5076 8.99998 10.5Z" stroke="#C3FF44" stroke-width="2" stroke-linecap="round" stroke-linejoin="round"/>
<path d="M7.90497 17.535L5.53497 10.5" stroke="#C3FF44" stroke-width="2" stroke-linecap="round" stroke-linejoin="round"/>
<path d="M19.785 6.43506L25.26 18.6601" stroke="#C3FF44" stroke-width="2" stroke-linecap="round" stroke-linejoin="round"/>
<path d="M18 6.43512H23.55C24.3297 6.43189 25.0775 6.12524 25.635 5.58012C26.1856 5.02504 26.4978 4.27693 26.505 3.49512" stroke="#C3FF44" stroke-width="2" stroke-linecap="round" stroke-linejoin="round"/>
<path d="M16.935 17.9999C16.9706 17.7189 17.085 17.4536 17.265 17.2349C18.0572 16.3031 19.0342 15.546 20.1342 15.0114C21.2342 14.4767 22.4332 14.1763 23.6553 14.1291C24.8774 14.0819 26.096 14.289 27.2339 14.7372C28.3719 15.1854 29.4043 15.865 30.266 16.7329C31.1277 17.6008 31.7998 18.6382 32.2397 19.7793C32.6797 20.9205 32.8779 22.1405 32.8219 23.3623C32.7659 24.584 32.4568 25.7808 31.9143 26.8769C31.3717 27.973 30.6075 28.9445 29.67 29.7299C28.7861 30.4722 27.7675 31.0374 26.67 31.3949C25.7871 31.6746 24.8662 31.8162 23.94 31.8149C22.6657 31.8139 21.4067 31.5372 20.2493 31.0038C19.0919 30.4705 18.0637 29.6931 17.235 28.7249C17.0532 28.5131 16.9384 28.2521 16.905 27.9749L25.14 27.3449C26.2437 27.2653 27.2763 26.771 28.0303 25.9613C28.7844 25.1515 29.2041 24.0864 29.205 22.9799V22.8899C29.2036 21.8104 28.7925 20.7716 28.0546 19.9836C27.3167 19.1956 26.3072 18.7171 25.23 18.6449L16.935 17.9999Z" stroke="#C3FF44" stroke-width="2" stroke-linecap="round" stroke-linejoin="round"/>
<path d="M7.90497 28.635L5.15997 32.55" stroke="#C3FF44" stroke-width="2" stroke-linecap="round" stroke-linejoin="round"/>
<path d="M30.84 28.5901L33.735 32.5501" stroke="#C3FF44" stroke-width="2" stroke-linecap="round" stroke-linejoin="round"/>
</svg>
