<svg width="36" height="36" viewBox="0 0 36 36" fill="none" xmlns="http://www.w3.org/2000/svg">
<path d="M10.74 14.2949C10.74 13.4993 10.4239 12.7362 9.86132 12.1736C9.29871 11.611 8.53565 11.2949 7.74 11.2949H5.22C4.42435 11.2949 3.66129 11.611 3.09868 12.1736C2.53607 12.7362 2.22 13.4993 2.22 14.2949V21.7049C2.22 22.5006 2.53607 23.2636 3.09868 23.8262C3.66129 24.3889 4.42435 24.7049 5.22 24.7049H7.77C8.56565 24.7049 9.32871 24.3889 9.89132 23.8262C10.4539 23.2636 10.77 22.5006 10.77 21.7049L10.74 14.2949Z" stroke="#C3FF44" stroke-width="2" stroke-linecap="round" stroke-linejoin="round"/>
<path d="M33.75 14.2949C33.75 13.4993 33.4339 12.7362 32.8713 12.1736C32.3087 11.611 31.5456 11.2949 30.75 11.2949H28.2C27.4043 11.2949 26.6413 11.611 26.0787 12.1736C25.5161 12.7362 25.2 13.4993 25.2 14.2949V21.7049C25.2 22.5006 25.5161 23.2636 26.0787 23.8262C26.6413 24.3889 27.4043 24.7049 28.2 24.7049H30.75C31.5456 24.7049 32.3087 24.3889 32.8713 23.8262C33.4339 23.2636 33.75 22.5006 33.75 21.7049V14.2949Z" stroke="#C3FF44" stroke-width="2" stroke-linecap="round" stroke-linejoin="round"/>
<path d="M25.26 21.315V14.685C22.8818 14.1135 20.4459 13.8166 18 13.8C15.5581 13.8158 13.1265 14.1178 10.755 14.7V21.345C13.134 21.8794 15.562 22.166 18 22.2C20.4445 22.1621 22.878 21.8654 25.26 21.315Z" stroke="#C3FF44" stroke-width="2" stroke-linecap="round" stroke-linejoin="round"/>
</svg>
